<svg xmlns="http://www.w3.org/2000/svg" xmlns:xlink="http://www.w3.org/1999/xlink" width="500" zoomAndPan="magnify" viewBox="0 0 375 374.999991" height="500" preserveAspectRatio="xMidYMid meet" version="1.0"><defs><g/></defs><rect x="-37.5" width="450" fill="#ffffff" y="-37.499999" height="449.999989" fill-opacity="1"/><rect x="-37.5" width="450" fill="#ffffff" y="-37.499999" height="449.999989" fill-opacity="1"/><rect x="-37.5" width="450" fill="#ffffff" y="-37.499999" height="449.999989" fill-opacity="1"/><path fill="#a6a6a6" d="M 12.5625 139.601562 C 12.066406 138.042969 11.644531 136.464844 11.300781 134.867188 C 10.953125 133.269531 10.6875 131.660156 10.496094 130.039062 C 10.300781 128.414062 10.1875 126.785156 10.152344 125.152344 C 10.113281 123.515625 10.152344 121.886719 10.273438 120.253906 C 10.390625 118.625 10.585938 117.003906 10.859375 115.390625 C 11.132812 113.78125 11.480469 112.183594 11.902344 110.605469 C 12.328125 109.027344 12.828125 107.472656 13.398438 105.941406 C 13.972656 104.414062 14.617188 102.910156 15.332031 101.441406 C 16.046875 99.972656 16.828125 98.542969 17.679688 97.148438 C 18.53125 95.753906 19.449219 94.402344 20.425781 93.09375 C 21.40625 91.789062 22.449219 90.53125 23.546875 89.320312 C 24.648438 88.113281 25.800781 86.960938 27.011719 85.863281 C 28.21875 84.765625 29.480469 83.730469 30.789062 82.75 C 32.09375 81.773438 33.445312 80.863281 34.84375 80.011719 C 36.238281 79.164062 37.667969 78.386719 39.136719 77.671875 C 40.609375 76.960938 42.109375 76.320312 43.636719 75.753906 C 55.425781 72.585938 67.300781 69.808594 79.269531 67.429688 C 91.238281 65.046875 103.273438 63.058594 115.375 61.472656 C 127.476562 59.886719 139.613281 58.699219 151.792969 57.917969 C 163.96875 57.132812 176.160156 56.75 188.363281 56.773438 C 200.566406 56.792969 212.757812 57.21875 224.933594 58.042969 C 237.105469 58.871094 249.242188 60.101562 261.335938 61.730469 C 273.429688 63.359375 285.457031 65.386719 297.417969 67.8125 C 309.378906 70.238281 321.246094 73.054688 333.023438 76.261719 C 334.550781 76.835938 336.046875 77.480469 337.515625 78.199219 C 338.980469 78.914062 340.410156 79.699219 341.804688 80.554688 C 343.195312 81.40625 344.542969 82.324219 345.847656 83.304688 C 347.152344 84.289062 348.410156 85.332031 349.613281 86.433594 C 350.820312 87.535156 351.96875 88.691406 353.066406 89.902344 C 354.160156 91.113281 355.195312 92.375 356.171875 93.683594 C 357.148438 94.996094 358.058594 96.351562 358.90625 97.746094 C 359.75 99.144531 360.53125 100.578125 361.238281 102.050781 C 361.949219 103.523438 362.589844 105.027344 363.15625 106.558594 C 363.722656 108.089844 364.214844 109.648438 364.632812 111.226562 C 365.054688 112.808594 365.394531 114.402344 365.664062 116.015625 C 365.929688 117.628906 366.121094 119.25 366.230469 120.882812 C 366.34375 122.511719 366.378906 124.144531 366.335938 125.777344 C 366.292969 127.414062 366.171875 129.039062 365.976562 130.664062 C 365.777344 132.285156 365.503906 133.894531 365.152344 135.492188 C 364.800781 137.089844 364.375 138.664062 363.875 140.21875 L 327.855469 236.566406 C 327.609375 237.410156 327.339844 238.25 327.050781 239.082031 C 326.761719 239.914062 326.449219 240.738281 326.117188 241.550781 C 325.785156 242.367188 325.429688 243.171875 325.058594 243.972656 C 324.683594 244.769531 324.289062 245.554688 323.875 246.332031 C 323.460938 247.109375 323.027344 247.875 322.574219 248.628906 C 322.121094 249.382812 321.648438 250.128906 321.15625 250.859375 C 320.667969 251.589844 320.15625 252.304688 319.628906 253.007812 C 319.101562 253.714844 318.554688 254.402344 317.992188 255.078125 C 317.425781 255.757812 316.847656 256.417969 316.25 257.0625 C 315.652344 257.710938 315.039062 258.339844 314.410156 258.953125 C 313.777344 259.570312 313.132812 260.167969 312.472656 260.75 C 311.8125 261.332031 311.136719 261.894531 310.449219 262.441406 C 309.757812 262.988281 309.054688 263.515625 308.339844 264.027344 C 307.621094 264.539062 306.894531 265.03125 306.152344 265.503906 C 305.410156 265.976562 304.65625 266.429688 303.890625 266.863281 C 303.125 267.296875 302.351562 267.710938 301.566406 268.105469 C 300.777344 268.5 299.984375 268.875 299.175781 269.230469 C 298.371094 269.582031 297.558594 269.914062 296.734375 270.226562 C 295.914062 270.539062 295.082031 270.828125 294.246094 271.097656 C 293.410156 271.367188 292.566406 271.613281 291.714844 271.839844 C 290.863281 272.0625 290.007812 272.265625 289.148438 272.449219 C 288.289062 272.628906 287.421875 272.789062 286.554688 272.925781 C 285.6875 273.0625 284.816406 273.179688 283.941406 273.269531 C 283.066406 273.363281 282.1875 273.433594 281.3125 273.480469 C 280.433594 273.527344 279.554688 273.550781 278.675781 273.550781 C 277.796875 273.554688 276.917969 273.535156 276.039062 273.492188 C 275.160156 273.445312 274.285156 273.382812 273.410156 273.292969 C 272.535156 273.203125 271.660156 273.09375 270.792969 272.960938 C 269.921875 272.828125 269.058594 272.671875 268.195312 272.492188 C 267.335938 272.316406 266.480469 272.117188 265.628906 271.894531 C 264.777344 271.671875 263.933594 271.429688 263.09375 271.164062 C 262.257812 270.898438 261.425781 270.609375 260.601562 270.300781 C 248.671875 267.742188 236.636719 265.808594 224.503906 264.511719 C 212.371094 263.210938 200.203125 262.550781 188.003906 262.53125 C 175.800781 262.507812 163.632812 263.125 151.492188 264.382812 C 139.355469 265.636719 127.316406 267.527344 115.378906 270.046875 C 114.554688 270.351562 113.722656 270.636719 112.882812 270.898438 C 112.042969 271.160156 111.195312 271.402344 110.34375 271.621094 C 109.492188 271.839844 108.636719 272.035156 107.773438 272.210938 C 106.914062 272.386719 106.046875 272.539062 105.175781 272.667969 C 104.308594 272.796875 103.433594 272.90625 102.558594 272.992188 C 101.683594 273.078125 100.808594 273.140625 99.929688 273.179688 C 99.050781 273.21875 98.171875 273.238281 97.292969 273.234375 C 96.414062 273.226562 95.535156 273.199219 94.65625 273.152344 C 93.777344 273.101562 92.902344 273.027344 92.027344 272.933594 C 91.15625 272.835938 90.285156 272.71875 89.414062 272.578125 C 88.546875 272.441406 87.683594 272.277344 86.824219 272.09375 C 85.964844 271.910156 85.109375 271.703125 84.257812 271.472656 C 83.410156 271.246094 82.566406 270.996094 81.730469 270.722656 C 80.894531 270.449219 80.066406 270.15625 79.246094 269.84375 C 78.421875 269.527344 77.609375 269.195312 76.804688 268.835938 C 76 268.480469 75.207031 268.105469 74.421875 267.707031 C 73.636719 267.308594 72.863281 266.894531 72.101562 266.457031 C 71.335938 266.019531 70.585938 265.5625 69.84375 265.085938 C 69.105469 264.609375 68.378906 264.117188 67.664062 263.605469 C 66.949219 263.089844 66.246094 262.558594 65.558594 262.011719 C 64.871094 261.460938 64.199219 260.894531 63.539062 260.3125 C 62.882812 259.726562 62.238281 259.125 61.609375 258.511719 C 60.984375 257.894531 60.371094 257.261719 59.777344 256.613281 C 59.179688 255.964844 58.601562 255.300781 58.042969 254.621094 C 57.480469 253.945312 56.9375 253.253906 56.410156 252.546875 C 55.886719 251.839844 55.378906 251.121094 54.890625 250.390625 C 54.402344 249.65625 53.929688 248.914062 53.480469 248.15625 C 53.03125 247.398438 52.597656 246.632812 52.1875 245.855469 C 51.777344 245.074219 51.386719 244.289062 51.015625 243.488281 C 50.644531 242.691406 50.292969 241.882812 49.964844 241.066406 C 49.632812 240.25 49.328125 239.425781 49.039062 238.59375 C 48.753906 237.761719 48.488281 236.921875 48.242188 236.074219 Z M 12.5625 139.601562 " fill-opacity="1" fill-rule="nonzero"/><g fill="#dc143c" fill-opacity="1"><g transform="translate(78.850152, 203.022154)"><g><path d="M 88.71875 -7.859375 L 66.5625 -65.625 L 54.921875 -4.859375 L 28.171875 -2.5 L -11.28125 -105.4375 L 15.484375 -107.8125 L 39.9375 -36.953125 L 40.59375 -37.015625 L 53.359375 -111.171875 L 71.546875 -112.78125 L 97.171875 -42.03125 L 97.8125 -42.078125 L 109.4375 -116.140625 L 136.078125 -118.5 L 115.34375 -10.21875 Z M 88.71875 -7.859375 "/></g></g></g><g fill="#dc143c" fill-opacity="1"><g transform="translate(207.889974, 193.309948)"><g><path d="M 62.59375 -99.609375 C 68.269531 -98.742188 73.691406 -97.066406 78.859375 -94.578125 C 84.023438 -92.097656 87.800781 -89.859375 90.1875 -87.859375 L 93.609375 -84.71875 L 81.015625 -67.15625 C 80.328125 -67.769531 79.367188 -68.582031 78.140625 -69.59375 C 76.910156 -70.601562 74.535156 -72.070312 71.015625 -74 C 67.503906 -75.9375 64.140625 -77.148438 60.921875 -77.640625 C 56.941406 -78.253906 53.738281 -77.878906 51.3125 -76.515625 C 48.894531 -75.148438 47.46875 -73.023438 47.03125 -70.140625 C 46.800781 -68.703125 47.097656 -67.289062 47.921875 -65.90625 C 48.753906 -64.53125 50.289062 -62.953125 52.53125 -61.171875 C 54.78125 -59.398438 56.769531 -57.945312 58.5 -56.8125 C 60.226562 -55.6875 62.910156 -53.976562 66.546875 -51.6875 C 72.878906 -47.757812 78.0625 -42.953125 82.09375 -37.265625 C 86.125 -31.578125 87.660156 -25.597656 86.703125 -19.328125 C 85.773438 -13.328125 83.882812 -8.25 81.03125 -4.09375 C 78.1875 0.0625 74.679688 3.117188 70.515625 5.078125 C 66.359375 7.046875 61.898438 8.296875 57.140625 8.828125 C 52.378906 9.359375 47.332031 9.210938 42 8.390625 C 37.425781 7.691406 33.007812 6.535156 28.75 4.921875 C 24.488281 3.316406 20.984375 1.59375 18.234375 -0.25 C 15.492188 -2.101562 13.039062 -3.890625 10.875 -5.609375 C 8.707031 -7.328125 7.148438 -8.738281 6.203125 -9.84375 L 4.75 -11.484375 L 19.765625 -29.734375 C 20.660156 -28.722656 21.894531 -27.425781 23.46875 -25.84375 C 25.039062 -24.257812 27.925781 -22.019531 32.125 -19.125 C 36.320312 -16.226562 40.15625 -14.515625 43.625 -13.984375 C 53.695312 -12.441406 59.257812 -15.097656 60.3125 -21.953125 C 60.53125 -23.398438 60.375 -24.789062 59.84375 -26.125 C 59.3125 -27.457031 58.226562 -28.878906 56.59375 -30.390625 C 54.96875 -31.898438 53.507812 -33.117188 52.21875 -34.046875 C 50.9375 -34.984375 48.820312 -36.4375 45.875 -38.40625 C 42.925781 -40.375 40.75 -41.859375 39.34375 -42.859375 C 33.46875 -46.960938 29.148438 -51.628906 26.390625 -56.859375 C 23.640625 -62.097656 22.679688 -67.425781 23.515625 -72.84375 C 24.953125 -82.25 29.597656 -89.398438 37.453125 -94.296875 C 45.316406 -99.203125 53.695312 -100.972656 62.59375 -99.609375 Z M 62.59375 -99.609375 "/></g></g></g></svg>